# xmcd
#
# Track frame offsets: 
#        150
#        21166
#        36694
#        59274
#        83668
#        100593
#        119508
#        143207
#        172168
#        188541
#        208492
#        224574
#        242281
#        275575
#        290732
#
# Disc length: 4100 seconds
#
# Revision: 0
# Processed by: cddbd v1.5.1PL0 Copyright (c) Steve Scherf et al.
# Submitted via: ExactAudioCopy v0.95a5
#
DISCID=eb10020f
DTITLE=Various Artist - Sin City Social Club Volume 3
DYEAR=2004
DGENRE=Country
TTITLE0=My Morning Jacket/Golden
TTITLE1=Kristin Mooney/Better Than Ever
TTITLE2=Los Lobos/Charmed
TTITLE3=Nitty Gritty Dirt Band/She
TTITLE4=Michelle Shcoked and Pete Anderson/Oh! Susanna
TTITLE5=The SnakehandlersSin City
TTITLE6=Susan Marshall/Act That Way
TTITLE7=Dwight Yoakam/Paradise
TTITLE8=Jedd Hughes/I Don't Have A Clue
TTITLE9=Tift Merritt/Ain't Lookin' Closely
TTITLE10=Melnoie Cannon/Sweeter Than Sugarcane
TTITLE11=Joe Firstman/Can't Stop Loving You
TTITLE12=Tony Lucca/Welcome To The Bay
TTITLE13=Big and Rich/Save A Horse, Ride A Cowboy
TTITLE14=Jedd Hughes/Luxury Liner
EXTD=
EXTT0=
EXTT1=
EXTT2=
EXTT3=
EXTT4=
EXTT5=
EXTT6=
EXTT7=
EXTT8=
EXTT9=
EXTT10=
EXTT11=
EXTT12=
EXTT13=
EXTT14=
PLAYORDER=
